<svg width="23" height="18" viewBox="0 0 23 18" fill="none" xmlns="http://www.w3.org/2000/svg">
<g id="Layer 2">
<g id="Layer 1">
<path id="Vector" d="M10.9264 0H11.3292C11.5635 0 11.7882 0.0933554 11.9539 0.259529C12.1196 0.425703 12.2127 0.651083 12.2127 0.886088V3.06222H10.043V0.886088C10.043 0.651083 10.136 0.425703 10.3017 0.259529C10.4674 0.0933554 10.6921 0 10.9264 0Z" fill="black"/>
<path id="Vector_2" d="M16.857 1.98532L17.2165 2.16739C17.4257 2.27331 17.5843 2.45823 17.6575 2.68146C17.7308 2.9047 17.7126 3.14796 17.607 3.35774L16.9687 4.62564L15.0319 3.64481L15.6789 2.35947C15.7876 2.15503 15.9717 2.00139 16.1919 1.93145C16.4121 1.86152 16.6508 1.88085 16.857 1.98532Z" fill="black"/>
<path id="Vector_3" d="M5.31735 2.13291L5.68552 1.96913C5.8997 1.87384 6.14286 1.8678 6.36148 1.95232C6.58011 2.03685 6.75631 2.20502 6.85132 2.41984L7.42551 3.71819L5.44217 4.60053L4.86007 3.2843C4.7711 3.07052 4.76915 2.8303 4.85462 2.61508C4.94009 2.39987 5.1062 2.22679 5.31735 2.13291Z" fill="black"/>
<path id="Vector_4" d="M11.2511 18.0016C7.14553 18.0016 3.24789 15.8516 0.344146 11.9489C0.120044 11.6466 -0.000976562 11.2799 -0.000976562 10.9032C-0.000976562 10.5264 0.120044 10.1598 0.344146 9.85745C3.24789 5.95475 7.14553 3.80469 11.2511 3.80469C15.3566 3.80469 19.2282 5.95475 22.158 9.85745C22.3825 10.1583 22.5039 10.5241 22.5039 10.8999C22.5039 11.2757 22.3825 11.6415 22.158 11.9424C19.2217 15.8581 15.3501 18.0016 11.2511 18.0016ZM1.87072 10.8999C4.46915 14.2879 7.76266 16.1513 11.2511 16.1513C14.7394 16.1513 18.0654 14.2879 20.6314 10.939C18.033 7.55102 14.7329 5.68762 11.2511 5.68762C7.76916 5.68762 4.43667 7.51844 1.87072 10.8999Z" fill="black"/>
<path id="Vector_5" d="M11.2502 8.8812C11.6497 8.8812 12.0403 9.00003 12.3726 9.22268C12.7048 9.44533 12.9637 9.76179 13.1167 10.132C13.2696 10.5023 13.3096 10.9097 13.2316 11.3028C13.1537 11.6958 12.9613 12.0569 12.6787 12.3403C12.3962 12.6236 12.0362 12.8166 11.6443 12.8948C11.2524 12.973 10.8462 12.9329 10.477 12.7795C10.1079 12.6261 9.79235 12.3664 9.57036 12.0332C9.34837 11.7 9.22988 11.3082 9.22988 10.9075C9.22988 10.3701 9.44273 9.85468 9.82161 9.47468C10.2005 9.09468 10.7143 8.8812 11.2502 8.8812ZM11.2502 7.57812C10.5936 7.57812 9.95183 7.77339 9.40595 8.13922C8.86006 8.50505 8.43459 9.02503 8.18335 9.63338C7.9321 10.2417 7.86637 10.9112 7.99445 11.557C8.12253 12.2028 8.43868 12.7961 8.90292 13.2617C9.36716 13.7273 9.95864 14.0444 10.6026 14.1728C11.2465 14.3013 11.9139 14.2354 12.5205 13.9834C13.127 13.7314 13.6455 13.3047 14.0102 12.7572C14.375 12.2096 14.5697 11.566 14.5697 10.9075C14.5697 10.0245 14.2199 9.17764 13.5974 8.55327C12.9749 7.92889 12.1305 7.57813 11.2502 7.57812Z" fill="black"/>
</g>
</g>
</svg>
